<svg width="60" height="61" viewBox="0 0 60 61" fill="none" xmlns="http://www.w3.org/2000/svg">
<g clip-path="url(#clip0_3061_3200)">
<path d="M56.337 55.8785C56.3428 56.0653 56.3875 56.2336 56.4712 56.3831C56.555 56.5326 56.6776 56.6505 56.8393 56.7368C57.0038 56.8201 57.2045 56.8619 57.4411 56.8619C57.6461 56.8619 57.8221 56.8345 57.9694 56.7799C58.1195 56.7224 58.2436 56.6548 58.3417 56.5772C58.4399 56.4967 58.5121 56.4219 58.5582 56.3529L58.9696 56.9093C58.8801 57.0301 58.7675 57.1379 58.6318 57.2328C58.4962 57.3277 58.3273 57.401 58.1252 57.4528C57.9261 57.5073 57.6793 57.5347 57.3848 57.5347C56.998 57.5347 56.6617 57.4556 56.376 57.2975C56.0902 57.1393 55.8679 56.9164 55.7092 56.6289C55.5533 56.3414 55.4753 56.005 55.4753 55.6197C55.4753 55.2746 55.5475 54.9641 55.6918 54.688C55.8362 54.4091 56.0455 54.1891 56.3197 54.0281C56.5968 53.8671 56.9288 53.7866 57.3155 53.7866C57.6764 53.7866 57.9896 53.8584 58.2551 54.0022C58.5207 54.146 58.7257 54.353 58.87 54.6233C59.0172 54.8908 59.0908 55.2142 59.0908 55.5938C59.0908 55.6168 59.0894 55.6642 59.0865 55.7361C59.0865 55.808 59.0836 55.8554 59.0778 55.8785H56.337ZM58.2248 55.2056C58.222 55.1136 58.1902 55.0086 58.1296 54.8908C58.0719 54.7728 57.978 54.6708 57.8481 54.5845C57.7182 54.4954 57.545 54.4508 57.3285 54.4508C57.1063 54.4508 56.9259 54.4939 56.7873 54.5802C56.6487 54.6636 56.5463 54.7642 56.4799 54.8821C56.4135 54.9971 56.3745 55.1049 56.363 55.2056H58.2248Z" fill="#132323"/>
<path d="M52.5127 53.7866C52.7119 53.7866 52.8966 53.8053 53.0669 53.8427C53.2372 53.88 53.383 53.9246 53.5042 53.9764C53.6255 54.0281 53.7092 54.0713 53.7554 54.1058L53.4176 54.6751C53.3599 54.6262 53.256 54.5701 53.1059 54.5069C52.9587 54.4436 52.7927 54.412 52.608 54.412C52.4232 54.412 52.2673 54.445 52.1403 54.5112C52.0133 54.5773 51.9498 54.6765 51.9498 54.8088C51.9498 54.9382 52.0162 55.0417 52.149 55.1193C52.2846 55.197 52.468 55.2617 52.6989 55.3134C52.8894 55.3566 53.0713 55.417 53.2444 55.4946C53.4176 55.5693 53.5591 55.6772 53.6688 55.8181C53.7814 55.9561 53.8376 56.1416 53.8376 56.3745C53.8376 56.5959 53.79 56.7813 53.6948 56.9309C53.6024 57.0775 53.4783 57.1954 53.3224 57.2845C53.1665 57.3736 52.9933 57.4369 52.8028 57.4743C52.6152 57.5146 52.4261 57.5347 52.2356 57.5347C52.0018 57.5347 51.7925 57.5117 51.6077 57.4657C51.4259 57.4197 51.2743 57.3665 51.1531 57.3061C51.0319 57.2428 50.9453 57.1897 50.8933 57.1465L51.231 56.5082C51.3061 56.58 51.4288 56.6562 51.5991 56.7368C51.7694 56.8144 51.9599 56.8532 52.1706 56.8532C52.3958 56.8532 52.5762 56.8101 52.7119 56.7238C52.8475 56.6376 52.9154 56.5225 52.9154 56.3788C52.9154 56.2724 52.8822 56.1861 52.8158 56.12C52.7523 56.0538 52.6642 56.0006 52.5517 55.9604C52.4391 55.9201 52.3135 55.8842 52.175 55.8526C52.0451 55.8209 51.9137 55.7807 51.7809 55.7318C51.651 55.6801 51.5312 55.6139 51.4216 55.5334C51.3119 55.45 51.2238 55.3465 51.1574 55.2229C51.0911 55.0992 51.0579 54.954 51.0579 54.7872C51.0579 54.5744 51.1257 54.3933 51.2614 54.2438C51.397 54.0942 51.576 53.9807 51.7983 53.903C52.0205 53.8254 52.2587 53.7866 52.5127 53.7866Z" fill="#132323"/>
<path d="M46.4248 55.6283C46.4248 55.9733 46.4955 56.248 46.637 56.4521C46.7813 56.6562 47.008 56.7583 47.3168 56.7583C47.6285 56.7583 47.8551 56.6562 47.9966 56.4521C48.1381 56.248 48.2088 55.9733 48.2088 55.6283V53.8901H49.1267V55.7448C49.1267 56.1013 49.056 56.4147 48.9145 56.685C48.7731 56.9524 48.5681 57.1609 48.2997 57.3104C48.0312 57.46 47.7036 57.5347 47.3168 57.5347C46.9329 57.5347 46.6067 57.46 46.3382 57.3104C46.0698 57.1609 45.8649 56.9524 45.7234 56.685C45.5819 56.4147 45.5112 56.1013 45.5112 55.7448V53.8901H46.4248V55.6283Z" fill="#132323"/>
<path d="M41.8275 57.5347C41.4551 57.5347 41.1232 57.4542 40.8316 57.2932C40.543 57.1293 40.3164 56.9078 40.1518 56.6289C39.9873 56.3471 39.905 56.0279 39.905 55.6714C39.905 55.3149 39.9873 54.9943 40.1518 54.7096C40.3164 54.4249 40.543 54.2007 40.8316 54.0368C41.1232 53.87 41.4551 53.7866 41.8275 53.7866C42.1999 53.7866 42.5289 53.87 42.8147 54.0368C43.1005 54.2007 43.3242 54.4249 43.4859 54.7096C43.6504 54.9943 43.7327 55.3149 43.7327 55.6714C43.7327 56.0279 43.6504 56.3471 43.4859 56.6289C43.3242 56.9078 43.1005 57.1293 42.8147 57.2932C42.5289 57.4542 42.1999 57.5347 41.8275 57.5347ZM41.8275 56.7583C42.0353 56.7583 42.2158 56.7109 42.3687 56.616C42.5218 56.5211 42.6401 56.3917 42.7238 56.2278C42.8075 56.0639 42.8494 55.877 42.8494 55.6671C42.8494 55.4572 42.8075 55.2703 42.7238 55.1064C42.6401 54.9396 42.5218 54.8073 42.3687 54.7096C42.2158 54.6118 42.0353 54.563 41.8275 54.563C41.6197 54.563 41.4378 54.6118 41.2819 54.7096C41.129 54.8073 41.0092 54.9396 40.9226 55.1064C40.8389 55.2703 40.797 55.4572 40.797 55.6671C40.797 55.877 40.8389 56.0639 40.9226 56.2278C41.0092 56.3917 41.129 56.5211 41.2819 56.616C41.4378 56.7109 41.6197 56.7583 41.8275 56.7583Z" fill="#132323"/>
<path d="M36.6766 53.7866C36.9133 53.7866 37.1442 53.8355 37.3694 53.9332C37.5946 54.031 37.7793 54.1877 37.9236 54.4034C38.0708 54.6161 38.1445 54.8937 38.1445 55.2358V57.4312H37.2135V55.404C37.2135 55.0848 37.1399 54.8505 36.9927 54.701C36.8483 54.5486 36.6564 54.4724 36.4168 54.4724C36.258 54.4724 36.1051 54.5169 35.9579 54.6061C35.8106 54.6953 35.6894 54.816 35.5941 54.9684C35.5017 55.1208 35.4556 55.2962 35.4556 55.4946V57.4312H34.5247V51.4963H35.4556V54.4853C35.4816 54.3875 35.5508 54.2855 35.6634 54.1791C35.7788 54.0698 35.9246 53.9778 36.1007 53.9031C36.2768 53.8254 36.4688 53.7866 36.6766 53.7866Z" fill="#132323"/>
<path d="M27.8447 53.7866C28.0843 53.7866 28.3167 53.8355 28.5418 53.9332C28.767 54.031 28.9517 54.1877 29.0961 54.4034C29.2433 54.6161 29.3169 54.8936 29.3169 55.2358V57.4312H28.386V55.404C28.386 55.0848 28.3094 54.8505 28.1565 54.701C28.0063 54.5485 27.8115 54.4724 27.5719 54.4724C27.4131 54.4724 27.2616 54.5169 27.1173 54.6061C26.973 54.6952 26.8546 54.8159 26.7622 54.9684C26.6727 55.1208 26.628 55.2962 26.628 55.4946V57.4312H25.7014V53.8901H26.628V54.4853C26.654 54.3875 26.7233 54.2854 26.8359 54.1791C26.9513 54.0698 27.0971 53.9778 27.2732 53.903C27.4493 53.8254 27.6398 53.7866 27.8447 53.7866Z" fill="#132323"/>
<path d="M21.71 59.3247C21.4386 59.3247 21.186 59.2973 20.9522 59.2427C20.7213 59.1909 20.5149 59.1118 20.3331 59.0055C20.1512 58.902 20.004 58.774 19.8914 58.6216L20.4673 58.0523C20.5279 58.127 20.6058 58.2047 20.7011 58.2852C20.7964 58.3686 20.9219 58.4376 21.0778 58.4922C21.2337 58.5497 21.4314 58.5785 21.671 58.5785C21.9048 58.5785 22.104 58.531 22.2685 58.4361C22.4359 58.3413 22.563 58.2104 22.6496 58.0437C22.739 57.8798 22.7838 57.69 22.7838 57.4743V57.3665H23.6931V57.5304C23.6931 57.9214 23.605 58.2492 23.4289 58.5138C23.2528 58.7812 23.0147 58.9824 22.7145 59.1176C22.4143 59.2556 22.0794 59.3247 21.71 59.3247ZM22.7838 57.4312V56.7756C22.7606 56.8446 22.6943 56.9395 22.5846 57.0603C22.4778 57.181 22.3306 57.2903 22.143 57.3881C21.9582 57.4858 21.7388 57.5347 21.4848 57.5347C21.1528 57.5347 20.8541 57.4556 20.5885 57.2975C20.3229 57.1393 20.1137 56.9193 19.9607 56.6376C19.8077 56.3557 19.7312 56.0308 19.7312 55.6628C19.7312 55.2947 19.8077 54.9698 19.9607 54.688C20.1137 54.4062 20.3229 54.1862 20.5885 54.0281C20.8541 53.8671 21.1528 53.7866 21.4848 53.7866C21.733 53.7866 21.9481 53.8297 22.13 53.916C22.3118 54.0022 22.4576 54.1014 22.5673 54.2136C22.6799 54.3257 22.7491 54.4235 22.7751 54.5069V53.8901H23.6931V57.4312H22.7838ZM20.6448 55.6628C20.6448 55.8899 20.6953 56.0883 20.7964 56.258C20.8974 56.4276 21.0287 56.5585 21.1904 56.6505C21.3549 56.7425 21.531 56.7885 21.7186 56.7885C21.9206 56.7885 22.0997 56.7411 22.2555 56.6462C22.4143 56.5513 22.5384 56.4204 22.6279 56.2537C22.7203 56.084 22.7665 55.8871 22.7665 55.6628C22.7665 55.4385 22.7203 55.243 22.6279 55.0762C22.5384 54.9065 22.4143 54.7743 22.2555 54.6794C22.0997 54.5816 21.9206 54.5328 21.7186 54.5328C21.531 54.5328 21.3549 54.5802 21.1904 54.6751C21.0287 54.7671 20.8974 54.8979 20.7964 55.0676C20.6953 55.2372 20.6448 55.4356 20.6448 55.6628Z" fill="#132323"/>
<path d="M16.9187 57.4312V53.8901H17.841V57.4312H16.9187ZM17.3907 52.8291C17.2348 52.8291 17.1006 52.773 16.988 52.6609C16.8784 52.5487 16.8235 52.415 16.8235 52.2598C16.8235 52.1045 16.8784 51.9708 16.988 51.8586C17.1006 51.7436 17.2348 51.6861 17.3907 51.6861C17.4946 51.6861 17.5899 51.7134 17.6765 51.7681C17.766 51.8198 17.8367 51.8888 17.8886 51.9751C17.9435 52.0584 17.9709 52.1533 17.9709 52.2598C17.9709 52.415 17.9146 52.5487 17.802 52.6609C17.6895 52.773 17.5524 52.8291 17.3907 52.8291Z" fill="#132323"/>
<path d="M13.6616 53.7866C13.8608 53.7866 14.0455 53.8053 14.2158 53.8427C14.3861 53.88 14.5319 53.9246 14.6532 53.9764C14.7744 54.0281 14.8581 54.0713 14.9043 54.1058L14.5666 54.6751C14.5088 54.6262 14.4049 54.5701 14.2548 54.5069C14.1076 54.4436 13.9416 54.412 13.7569 54.412C13.5721 54.412 13.4162 54.445 13.2892 54.5112C13.1622 54.5773 13.0987 54.6765 13.0987 54.8088C13.0987 54.9382 13.1651 55.0417 13.2979 55.1193C13.4336 55.197 13.6168 55.2617 13.8478 55.3134C14.0383 55.3566 14.2202 55.417 14.3934 55.4946C14.5666 55.5693 14.708 55.6772 14.8177 55.8181C14.9303 55.9561 14.9866 56.1416 14.9866 56.3745C14.9866 56.5959 14.9389 56.7813 14.8437 56.9309C14.7513 57.0775 14.6272 57.1954 14.4713 57.2845C14.3154 57.3736 14.1422 57.4369 13.9517 57.4743C13.7641 57.5146 13.575 57.5347 13.3845 57.5347C13.1507 57.5347 12.9414 57.5117 12.7567 57.4657C12.5748 57.4197 12.4233 57.3665 12.302 57.3061C12.1808 57.2428 12.0942 57.1897 12.0422 57.1465L12.38 56.5082C12.455 56.58 12.5777 56.6562 12.748 56.7368C12.9183 56.8144 13.1088 56.8532 13.3196 56.8532C13.5447 56.8532 13.7251 56.8101 13.8608 56.7238C13.9964 56.6376 14.0643 56.5225 14.0643 56.3788C14.0643 56.2724 14.0311 56.1861 13.9647 56.12C13.9012 56.0538 13.8132 56.0006 13.7006 55.9604C13.588 55.9201 13.4624 55.8842 13.3239 55.8526C13.194 55.8209 13.0626 55.7807 12.9299 55.7318C12.8 55.6801 12.6802 55.6139 12.5705 55.5334C12.4608 55.45 12.3727 55.3465 12.3064 55.2229C12.2399 55.0992 12.2068 54.954 12.2068 54.7872C12.2068 54.5744 12.2746 54.3933 12.4103 54.2438C12.5459 54.0942 12.7249 53.9807 12.9472 53.903C13.1694 53.8254 13.4076 53.7866 13.6616 53.7866Z" fill="#132323"/>
<path d="M7.66975 55.8785C7.67557 56.0653 7.72029 56.2336 7.80398 56.3831C7.88773 56.5326 8.01039 56.6505 8.17202 56.7368C8.33656 56.8201 8.53722 56.8619 8.77388 56.8619C8.97887 56.8619 9.15491 56.8345 9.30213 56.7799C9.45225 56.7224 9.57639 56.6548 9.6745 56.5772C9.77266 56.4967 9.84485 56.4219 9.89099 56.3529L10.3023 56.9093C10.2129 57.0301 10.1003 57.1379 9.9646 57.2328C9.82895 57.3277 9.66008 57.401 9.458 57.4528C9.25883 57.5073 9.01202 57.5347 8.71759 57.5347C8.33081 57.5347 7.9945 57.4556 7.70872 57.2975C7.42295 57.1393 7.2007 56.9164 7.04192 56.6289C6.88604 56.3414 6.80811 56.005 6.80811 55.6197C6.80811 55.2746 6.88029 54.9641 7.0246 54.688C7.16897 54.4091 7.37823 54.1891 7.65244 54.0281C7.92955 53.8671 8.26153 53.7866 8.64831 53.7866C9.00918 53.7866 9.32235 53.8584 9.5879 54.0022C9.85351 54.146 10.0584 54.353 10.2027 54.6233C10.35 54.8908 10.4236 55.2142 10.4236 55.5938C10.4236 55.6168 10.4221 55.6642 10.4192 55.7361C10.4192 55.808 10.4164 55.8554 10.4106 55.8785H7.66975ZM9.55759 55.2056C9.55474 55.1136 9.52295 55.0086 9.46233 54.8908C9.40462 54.7728 9.31079 54.6708 9.18089 54.5845C9.05099 54.4954 8.8778 54.4508 8.6613 54.4508C8.43905 54.4508 8.25862 54.4939 8.12006 54.5802C7.98151 54.6636 7.87907 54.7642 7.81264 54.8821C7.74627 54.9971 7.7073 55.1049 7.69573 55.2056H9.55759Z" fill="#132323"/>
<path d="M0.983398 51.7379H2.44257C3.05165 51.7379 3.55392 51.8601 3.94938 52.1045C4.34485 52.346 4.63928 52.681 4.83268 53.1094C5.02608 53.5379 5.12279 54.0281 5.12279 54.5802C5.12279 55.1352 5.02608 55.6269 4.83268 56.0553C4.64217 56.4838 4.34918 56.8202 3.95371 57.0646C3.55825 57.309 3.05454 57.4312 2.44257 57.4312H0.983398V51.7379ZM1.88835 52.5574V56.6117H2.36464C2.77742 56.6117 3.11515 56.5254 3.37784 56.3529C3.6434 56.1776 3.83969 55.9374 3.9667 55.6326C4.09371 55.3279 4.15866 54.9799 4.16155 54.5888C4.16443 54.1978 4.10237 53.8499 3.97536 53.5451C3.84835 53.2374 3.65061 52.9959 3.38216 52.8205C3.1166 52.6451 2.77742 52.5574 2.36464 52.5574H1.88835Z" fill="#132323"/>
<path d="M13.6082 46.2121C27.3772 46.2121 35.0969 46.2121 48.8659 46.2121" stroke="#677171" stroke-width="0.5" stroke-linecap="round"/>
<path d="M40.5436 34.2027C40.4562 34.291 40.4119 34.4003 40.4119 34.5251V44.5992C40.4119 44.724 40.4562 44.8333 40.5436 44.9216L40.5481 44.9258C40.6437 45.0104 40.7552 45.0552 40.8796 45.0552C41.0115 45.0552 41.1262 45.0118 41.2155 44.9216C41.303 44.8333 41.3472 44.724 41.3472 44.5992V34.9963H44.5683C44.9716 34.9963 45.3343 35.0979 45.6586 35.3003L45.6614 35.3019C45.9975 35.496 46.2607 35.7571 46.4524 36.0864L46.4534 36.0881C46.654 36.4161 46.7547 36.7831 46.7547 37.1913C46.7547 37.5995 46.654 37.972 46.4528 38.3107L46.4524 38.3114C46.2605 38.641 45.9969 38.9075 45.6601 39.1118C45.3355 39.3046 44.9724 39.4016 44.5683 39.4016H42.2741C42.1498 39.4016 42.0382 39.4463 41.9425 39.5309L41.9381 39.5351C41.8489 39.6252 41.8064 39.7405 41.8064 39.8727C41.8064 39.9972 41.8503 40.1092 41.9339 40.2058L41.938 40.2104L41.9425 40.2145C42.0382 40.2991 42.1498 40.3439 42.2741 40.3439H44.4082L46.856 44.8251C46.916 44.9342 47.0035 45.0118 47.1177 45.0503L47.1204 45.0511C47.2451 45.0889 47.3697 45.0753 47.4893 45.0149L47.4932 45.0129L47.497 45.0105C47.5954 44.9484 47.6638 44.8601 47.7004 44.7492L47.7012 44.7466C47.7384 44.6217 47.725 44.4968 47.6655 44.3765L47.6638 44.3732L45.3971 40.2217C45.8127 40.1118 46.186 39.9235 46.5161 39.6567L46.5173 39.6556C46.8771 39.3544 47.1601 38.9907 47.3656 38.5653C47.582 38.1382 47.6901 37.6798 47.6901 37.1913C47.6901 36.62 47.546 36.0985 47.2571 35.6291C46.9796 35.1518 46.604 34.7723 46.1313 34.4917C45.6661 34.1996 45.1443 34.054 44.5683 34.054H40.8796C40.7512 34.054 40.6383 34.1069 40.5436 34.2027Z" fill="#4A6565"/>
<path d="M40.5436 34.2027C40.4562 34.291 40.4119 34.4003 40.4119 34.5251V44.5992C40.4119 44.724 40.4562 44.8333 40.5436 44.9216L40.5481 44.9258C40.6437 45.0104 40.7552 45.0552 40.8796 45.0552C41.0115 45.0552 41.1262 45.0118 41.2155 44.9216C41.303 44.8333 41.3472 44.724 41.3472 44.5992V34.9963H44.5683C44.9716 34.9963 45.3343 35.0979 45.6586 35.3003L45.6614 35.3019C45.9975 35.496 46.2607 35.7571 46.4524 36.0864L46.4534 36.0881C46.654 36.4161 46.7547 36.7831 46.7547 37.1913C46.7547 37.5995 46.654 37.972 46.4528 38.3107L46.4524 38.3114C46.2605 38.641 45.9969 38.9075 45.6601 39.1118C45.3355 39.3046 44.9724 39.4016 44.5683 39.4016H42.2741C42.1498 39.4016 42.0382 39.4463 41.9425 39.5309L41.9381 39.5351C41.8489 39.6252 41.8064 39.7405 41.8064 39.8727C41.8064 39.9972 41.8503 40.1092 41.9339 40.2058L41.938 40.2104L41.9425 40.2145C42.0382 40.2991 42.1498 40.3439 42.2741 40.3439H44.4082L46.856 44.8251C46.916 44.9342 47.0035 45.0118 47.1177 45.0503L47.1204 45.0511C47.2451 45.0889 47.3697 45.0753 47.4893 45.0149L47.4932 45.0129L47.497 45.0105C47.5954 44.9484 47.6638 44.8601 47.7004 44.7492L47.7012 44.7466C47.7384 44.6217 47.725 44.4968 47.6655 44.3765L47.6638 44.3732L45.3971 40.2217C45.8127 40.1118 46.186 39.9235 46.5161 39.6567L46.5173 39.6556C46.8771 39.3544 47.1601 38.9907 47.3656 38.5653C47.582 38.1382 47.6901 37.6798 47.6901 37.1913C47.6901 36.62 47.546 36.0985 47.2571 35.6291C46.9796 35.1518 46.604 34.7723 46.1313 34.4917C45.6661 34.1996 45.1443 34.054 44.5683 34.054H40.8796C40.7512 34.054 40.6383 34.1069 40.5436 34.2027ZM40.5436 34.2027L40.6089 34.2668" stroke="#4A6565" stroke-width="0.3"/>
<path d="M33.3826 44.7363L33.3829 44.7373C33.4179 44.8315 33.4717 44.9091 33.5477 44.9625C33.6239 45.0161 33.7148 45.0401 33.8149 45.0401C33.9188 45.0401 34.013 45.0166 34.0917 44.9636C34.1707 44.9104 34.2264 44.8326 34.2618 44.7373L34.2621 44.7364L37.9654 34.4516C38.0138 34.3282 38.0087 34.2052 37.9468 34.0904C37.896 33.9775 37.8075 33.8968 37.6885 33.8487C37.5649 33.7987 37.4416 33.8038 37.3268 33.867C37.2144 33.9186 37.1347 34.0082 37.0874 34.1276L37.0864 34.1303L33.815 43.1894L30.5583 34.1304L30.5573 34.1276C30.51 34.0082 30.4304 33.9186 30.318 33.867C30.2032 33.8038 30.0798 33.7987 29.9562 33.8487C29.8359 33.8973 29.7468 33.9793 29.6963 34.0942C29.6455 34.2094 29.6468 34.3305 29.6943 34.4516L33.3826 44.7363Z" fill="#4A6565" stroke="#4A6565" stroke-width="0.3"/>
<path d="M20.8441 44.724L20.8454 44.7272C20.8963 44.8429 20.9869 44.9209 21.1093 44.9591C21.2315 45.0073 21.3535 45.0017 21.4671 44.9393C21.5795 44.8876 21.6591 44.798 21.7065 44.6786L21.7073 44.6763L22.7497 41.8285H25.8038C25.9285 41.8285 26.0373 41.7833 26.1247 41.6949C26.2121 41.6066 26.2564 41.4973 26.2564 41.3725C26.2564 41.2414 26.2146 41.1269 26.127 41.0372C26.0411 40.9391 25.9318 40.8862 25.8038 40.8862H23.1029L25.0539 35.6254L28.4008 44.6766L28.4015 44.6786C28.4491 44.7987 28.5293 44.8886 28.6427 44.9401C28.7614 44.9995 28.8833 45.0091 29.0003 44.9585C29.1212 44.9204 29.2109 44.8433 29.2618 44.7291C29.3218 44.6067 29.3286 44.4796 29.2794 44.3543L25.501 34.0994L25.4991 34.0947C25.4586 34.0013 25.401 33.9252 25.3234 33.8729C25.2455 33.8205 25.1542 33.7965 25.054 33.7965C24.9538 33.7965 24.8625 33.8205 24.7846 33.8729C24.707 33.9252 24.6494 34.0013 24.6089 34.0947L24.607 34.0996L20.8436 44.3543C20.7954 44.4768 20.7956 44.6016 20.8441 44.724Z" fill="#4A6565" stroke="#4A6565" stroke-width="0.3"/>
<path d="M16.0238 44.9216L16.0283 44.9258C16.1257 45.012 16.2428 45.0552 16.3748 45.0552C16.4995 45.0552 16.6083 45.01 16.6957 44.9216C16.7831 44.8333 16.8274 44.724 16.8274 44.5992V34.9963H19.9886C20.1133 34.9963 20.2221 34.951 20.3095 34.8627C20.4043 34.7669 20.4562 34.6535 20.4562 34.5251C20.4562 34.3981 20.4053 34.2891 20.3097 34.2026C20.2241 34.106 20.1156 34.054 19.9886 34.054H12.731C12.6029 34.054 12.4937 34.1069 12.4078 34.2049C12.3219 34.2928 12.2783 34.4013 12.2783 34.5251C12.2783 34.6496 12.3222 34.7616 12.4058 34.8582L12.41 34.8627C12.4975 34.951 12.6063 34.9963 12.731 34.9963H15.8921V44.5992C15.8921 44.724 15.9363 44.8333 16.0238 44.9216Z" fill="#4A6565" stroke="#4A6565" stroke-width="0.3"/>
<path d="M26.5979 1.23218V28.9595" stroke="#03363D" stroke-width="1.5" stroke-linecap="round"/>
<path d="M34.02 1.23218V28.9595" stroke="#03363D" stroke-width="1.5" stroke-linecap="round"/>
<path d="M17.9382 0.616165H42.6805" stroke="#03363D" stroke-width="1.5" stroke-linecap="round"/>
<path d="M29.072 28.9596H34.0205" stroke="#03363D" stroke-width="1.5" stroke-linecap="round"/>
</g>
<defs>
<clipPath id="clip0_3061_3200">
<rect width="60" height="61" fill="white"/>
</clipPath>
</defs>
</svg>
